<svg id="eZKRGzi8jdw1" xmlns="http://www.w3.org/2000/svg" xmlns:xlink="http://www.w3.org/1999/xlink" viewBox="0 0 2000 700" shape-rendering="geometricPrecision" text-rendering="geometricPrecision"><g><g transform="translate(-.001068-1379.78003)"><path d="M590.7,1619.35L518.56,1844.8c-2.3,7.18-8.97,12.04-16.5,12.04h-68.5c-7.64,0-14.38-5-16.58-12.31l-22.11-73.18c-4.92-16.29-27.93-16.46-33.09-.24l-23.44,73.66c-2.29,7.19-8.96,12.07-16.51,12.07h-68.69c-7.53,0-14.2-4.87-16.5-12.04L164.5,1619.35c-3.58-11.18,4.76-22.6,16.5-22.6h53.75c7.61,0,14.33,4.97,16.56,12.25l25.48,83.11c4.96,16.19,27.82,16.38,33.04.26l27.11-83.63c2.32-7.14,8.97-11.98,16.48-11.98h55.18c7.63,0,14.37,5,16.58,12.31l25.49,84.19c4.93,16.27,27.9,16.45,33.08.26l27.12-84.71c2.3-7.17,8.97-12.04,16.5-12.04h46.85c11.71-.02,20.05,11.4,16.48,22.58Z" fill="#fffcf5"/><path d="M627.84,1852.94c-10.49-4.18-19.8-9.59-27.93-16.23-7.57-6.19-8.73-17.31-2.42-24.77l24.31-28.72c6.21-7.33,17.33-8.36,24.49-1.96c2.85,2.55,5.68,4.71,8.48,6.47c6.69,4.22,13.62,6.32,20.81,6.32c9.16,0,16.16-2.72,20.99-8.17s7.25-13.5,7.25-24.15v-81.51c0-9.57-7.76-17.32-17.32-17.32h-53.78c-9.57,0-17.32-7.76-17.32-17.32v-31.49c0-9.57,7.76-17.32,17.32-17.32h140.36c9.57,0,17.32,7.76,17.32,17.32v142.45c0,35.43-9.11,61.99-27.31,79.7-18.21,17.72-44.91,26.57-80.07,26.57-20.32-.02-38.71-3.31-55.18-9.87Z" fill="#fffcf5"/><path d="M990.3,1811.51h-75.05c-7.16,0-13.59,4.41-16.17,11.1l-8.92,23.14c-2.58,6.69-9,11.1-16.17,11.1h-50.8c-12.49,0-20.88-12.82-15.87-24.26l98.56-225.45c2.76-6.31,8.99-10.39,15.87-10.39h63.53c6.89,0,13.12,4.08,15.87,10.39l98.55,225.45c5,11.45-3.38,24.26-15.87,24.26h-52.29c-7.17,0-13.59-4.41-16.17-11.1l-8.91-23.14c-2.57-6.69-9-11.1-16.16-11.1Zm-21.37-86.73v0c-5.71-14.78-26.61-14.78-32.32,0v0c-4.39,11.35,3.99,23.57,16.16,23.57v0c12.17,0,20.55-12.22,16.16-23.57Z" fill="#fffcf5"/><path d="M1124.44,1614.07c0-9.57,7.76-17.32,17.32-17.32h110.86c28.98,0,54.56,5.27,76.73,15.79c22.17,10.53,39.38,25.58,51.65,45.15c12.26,19.57,18.39,42.61,18.39,69.11c0,26.51-6.13,49.55-18.39,69.11-12.26,19.57-29.48,34.62-51.65,45.14-22.18,10.54-47.75,15.79-76.73,15.79h-110.86c-9.57,0-17.32-7.76-17.32-17.32v-225.45Zm124.47,174.41c18.82,0,33.87-5.39,45.14-16.17c11.27-10.77,16.91-25.94,16.91-45.52c0-19.56-5.64-34.74-16.91-45.51-11.27-10.78-26.32-16.17-45.14-16.17h-19.46c-9.57,0-17.32,7.76-17.32,17.32v88.71c0,9.57,7.76,17.32,17.32,17.32h19.46Z" fill="#fffcf5"/><path d="M1448.68,1596.75h53.04c9.57,0,17.32,7.76,17.32,17.32v225.45c0,9.57-7.76,17.32-17.32,17.32h-53.04c-9.57,0-17.32-7.76-17.32-17.32v-225.45c-.01-9.57,7.75-17.32,17.32-17.32Z" fill="#fffcf5"/><path d="M1561.39,1614.07c0-9.57,7.76-17.32,17.32-17.32h110.86c28.98,0,54.56,5.27,76.73,15.79c22.17,10.53,39.38,25.58,51.65,45.15c12.26,19.57,18.39,42.61,18.39,69.11c0,26.51-6.13,49.55-18.39,69.11-12.26,19.57-29.48,34.62-51.65,45.14-22.18,10.54-47.75,15.79-76.73,15.79h-110.86c-9.57,0-17.32-7.76-17.32-17.32v-225.45Zm124.48,174.41c18.82,0,33.87-5.39,45.14-16.17c11.27-10.77,16.91-25.94,16.91-45.52c0-19.56-5.64-34.74-16.91-45.51-11.27-10.78-26.32-16.17-45.14-16.17h-19.46c-9.57,0-17.32,7.76-17.32,17.32v88.71c0,9.57,7.76,17.32,17.32,17.32h19.46Z" fill="#fffcf5"/></g></g></svg>